<svg width="46" height="47" viewBox="0 0 46 47" fill="none" xmlns="http://www.w3.org/2000/svg">
<path d="M3.81257 4.06187C0.276318 7.735 1.00007 11.6369 1.00007 23.4906C1.00007 33.3344 -0.717432 43.2025 8.27132 45.5256C11.0782 46.2475 35.9482 46.2475 38.7513 45.5219C42.4938 44.5563 45.5388 41.5206 45.9551 36.2275C46.0132 35.4888 46.0132 11.5056 45.9532 10.7519C45.5107 5.11375 42.0401 1.86437 37.4669 1.20625C36.4188 1.05437 36.2088 1.00937 30.8313 0.999995C11.7569 1.00937 7.57569 0.159995 3.81257 4.06187Z" fill="url(#paint0_linear_4_94)"/>
<path d="M23.4963 6.8856C16.6881 6.8856 10.2231 6.27998 7.75377 12.6175C6.73377 15.235 6.88189 18.6344 6.88189 23.5019C6.88189 27.7731 6.74502 31.7875 7.75377 34.3844C10.2175 40.7256 16.735 40.1181 23.4925 40.1181C30.0119 40.1181 36.7338 40.7969 39.2332 34.3844C40.255 31.7406 40.105 28.3919 40.105 23.5019C40.105 17.0106 40.4632 12.82 37.315 9.67373C34.1275 6.48623 29.8169 6.8856 23.4888 6.8856H23.4963ZM22.0075 9.87998C36.2088 9.85748 38.0163 8.27873 37.0188 30.2106C36.6644 37.9675 30.7581 37.1162 23.4981 37.1162C10.2606 37.1162 9.88002 36.7375 9.88002 23.4944C9.88002 10.0975 10.93 9.88748 22.0075 9.87623V9.87998ZM32.365 12.6381C31.2644 12.6381 30.3719 13.5306 30.3719 14.6312C30.3719 15.7319 31.2644 16.6244 32.365 16.6244C33.4656 16.6244 34.3581 15.7319 34.3581 14.6312C34.3581 13.5306 33.4656 12.6381 32.365 12.6381ZM23.4963 14.9687C18.7844 14.9687 14.965 18.79 14.965 23.5019C14.965 28.2137 18.7844 32.0331 23.4963 32.0331C28.2081 32.0331 32.0256 28.2137 32.0256 23.5019C32.0256 18.79 28.2081 14.9687 23.4963 14.9687ZM23.4963 17.9631C30.8181 17.9631 30.8275 29.0406 23.4963 29.0406C16.1763 29.0406 16.165 17.9631 23.4963 17.9631Z" fill="white"/>
<defs>
<linearGradient id="paint0_linear_4_94" x1="3.89886" y1="43.1258" x2="45.7216" y2="6.92872" gradientUnits="userSpaceOnUse">
<stop stop-color="#FFDD55"/>
<stop offset="0.5" stop-color="#FF543E"/>
<stop offset="1" stop-color="#C837AB"/>
</linearGradient>
</defs>
</svg>
