<svg width="45" height="45" viewBox="0 0 45 45" fill="none" xmlns="http://www.w3.org/2000/svg">
<path d="M44.7416 8.52301C44.4424 8.19587 43.9607 8.11085 43.5676 8.31565C43.1636 8.49926 42.7455 8.6504 42.3174 8.76761C42.9851 7.91321 43.4892 6.94279 43.8044 5.90515C43.9431 5.38302 43.6323 4.84723 43.1102 4.70847C42.8314 4.63437 42.5341 4.6871 42.2979 4.85255C40.8104 5.65752 39.2293 6.27594 37.5904 6.6937C34.2165 3.50923 29.0773 3.11229 25.2543 5.74089C22.3095 7.73198 20.6883 11.1733 21.0282 14.7116C14.6446 14.1677 8.77139 11.0044 4.80442 5.97366C4.60063 5.72713 4.29229 5.59139 3.97286 5.60781C3.64893 5.62725 3.35581 5.8061 3.19027 6.08518C1.84391 8.28603 1.45386 10.9409 2.11025 13.4359C2.44684 14.7179 3.02381 15.9243 3.81052 16.991C3.45614 16.8175 3.12267 16.6042 2.81663 16.3552C2.39704 16.0148 1.781 16.079 1.44056 16.4986C1.29932 16.6728 1.2221 16.8901 1.22201 17.1144C1.28015 20.734 3.26776 24.0468 6.43426 25.8014C6.00706 25.749 5.58536 25.6586 5.17421 25.5314C4.65686 25.3758 4.11125 25.669 3.95561 26.1864C3.88775 26.4121 3.90361 26.6547 4.00028 26.8697C5.3746 29.9483 8.12215 32.1968 11.4117 32.935C8.27761 34.7032 4.66869 35.4462 1.09095 35.0598C0.62706 35.0006 0.18757 35.2826 0.0480735 35.729C-0.0957331 36.1718 0.0924628 36.6546 0.498111 36.8834C4.8788 39.4862 9.86223 40.9022 14.957 40.9921C19.8448 40.9742 24.6186 39.5143 28.6803 36.7953C36.4341 31.6496 41.2667 22.4107 40.5937 14.1443C42.2516 12.9171 43.6898 11.4181 44.8473 9.71079C45.0852 9.3366 45.0418 8.84924 44.7416 8.52301Z" fill="#03A9F4"/>
</svg>
