<?xml version="1.0" standalone="no"?>
<!DOCTYPE svg PUBLIC "-//W3C//DTD SVG 20010904//EN"
 "http://www.w3.org/TR/2001/REC-SVG-20010904/DTD/svg10.dtd">
<svg version="1.0" xmlns="http://www.w3.org/2000/svg"
 width="500.000000pt" height="500.000000pt" viewBox="0 0 500.000000 500.000000"
 preserveAspectRatio="xMidYMid meet">
<metadata>
Created by potrace 1.14, written by Peter Selinger 2001-2017
</metadata>
<g transform="translate(0.000000,500.000000) scale(0.100000,-0.100000)"
fill="#000000" stroke="none">
<path d="M0 2500 l0 -2500 2500 0 2500 0 0 2500 0 2500 -2500 0 -2500 0 0
-2500z m1840 -612 l0 -371 323 6 c177 3 349 11 382 17 251 47 466 169 591 335
58 78 129 222 150 308 l16 67 196 0 195 0 -7 -51 c-18 -137 -110 -375 -194
-505 -122 -187 -370 -371 -605 -448 -227 -74 -360 -86 -953 -86 l-484 0 0 550
0 550 195 0 195 0 0 -372z"/>
</g>
</svg>
